<svg id="visual" viewBox="0 0 960 540" width="960" height="540" xmlns="http://www.w3.org/2000/svg" xmlns:xlink="http://www.w3.org/1999/xlink" version="1.1"><path d="M157 0L167 15C177 30 197 60 194.8 90C192.7 120 168.3 150 154.8 180C141.3 210 138.7 240 148.5 270C158.3 300 180.7 330 198.7 360C216.7 390 230.3 420 227.2 450C224 480 204 510 194 525L184 540L0 540L0 525C0 510 0 480 0 450C0 420 0 390 0 360C0 330 0 300 0 270C0 240 0 210 0 180C0 150 0 120 0 90C0 60 0 30 0 15L0 0Z" fill="#7dd3fc" stroke-linecap="round" stroke-linejoin="miter"></path></svg>