<svg id="visual" viewBox="0 0 675 900" width="675" height="900" xmlns="http://www.w3.org/2000/svg" xmlns:xlink="http://www.w3.org/1999/xlink" version="1.1"><path d="M349 0L358 25C367 50 385 100 388.3 150C391.7 200 380.3 250 366.2 300C352 350 335 400 305.8 450C276.7 500 235.3 550 221.3 600C207.3 650 220.7 700 238.2 750C255.7 800 277.3 850 288.2 875L299 900L0 900L0 875C0 850 0 800 0 750C0 700 0 650 0 600C0 550 0 500 0 450C0 400 0 350 0 300C0 250 0 200 0 150C0 100 0 50 0 25L0 0Z" fill="#7dd3fc" stroke-linecap="round" stroke-linejoin="miter"></path></svg>